<svg width="22" height="27" viewBox="0 0 22 27" fill="none" xmlns="http://www.w3.org/2000/svg">
<path d="M21.9406 8.41305L21.1354 6.22056L21.689 4.94586C21.7393 4.79289 21.7393 4.58894 21.5883 4.48696L20.0787 2.95732C19.7564 2.62914 19.3505 2.39815 18.9062 2.29011C18.4619 2.18207 17.9967 2.20123 17.5625 2.34546L17.16 2.49842L14.8451 0L6.99482 0.0509882L4.67999 2.6004L4.27741 2.44743C3.47225 2.09052 2.4658 2.34546 1.81161 3.0083L0.301935 4.58894C0.20129 4.69091 0.20129 4.84388 0.251612 4.94586L0.805159 6.27155L0 8.46404L2.81806 19.4265C3.09024 20.4601 3.71403 21.363 4.57934 21.9759C4.57934 21.9759 7.3974 24.0154 10.2155 25.851C10.4671 26.004 10.7187 26.106 10.9703 26.106C11.2414 26.0992 11.5043 26.0104 11.7251 25.851L17.3612 21.9759C18.2119 21.3483 18.8316 20.4511 19.1225 19.4265L21.4374 10.4526L21.9406 8.41305Z" fill="#FF5000"/>
<path d="M11.6245 16.1632C11.4232 16.0613 11.2219 16.0103 11.1716 16.0103H10.8696C10.8193 16.0103 10.618 16.0613 10.4167 16.1632L9.71222 16.4692L8.90706 16.8261L7.649 17.4889C7.44771 17.5909 7.44771 17.7949 7.59868 17.9478L8.70578 18.7636L9.71222 19.5794C9.91351 19.7324 10.1651 19.9873 10.3664 20.1403L10.6684 20.3953C10.7616 20.4697 10.8768 20.5102 10.9954 20.5102C11.1141 20.5102 11.2293 20.4697 11.3225 20.3953L11.6245 20.1403C11.8258 19.9873 12.0774 19.7324 12.2787 19.5794L12.5806 19.3245L13.2851 18.7636L14.3922 17.9478C14.5935 17.7949 14.5935 17.5909 14.3419 17.4889L13.0838 16.8261L12.2787 16.4692L11.6245 16.1632ZM19.4748 8.92291L19.5251 8.82093C19.5251 8.66796 19.5251 8.46401 19.4748 8.36204C19.4748 8.26006 19.1728 7.80117 19.0722 7.59721L18.3677 6.52646L17.8645 5.81263L16.9083 4.58891C16.7574 4.38496 16.6064 4.23199 16.6064 4.23199L16.1535 4.33397L14.6941 4.6399L14.04 4.74187C13.889 4.74187 13.6374 4.74187 13.3858 4.6399L12.2283 4.23199C11.9767 4.181 11.6245 4.02804 11.3729 3.97705H10.6684C10.4167 4.02804 10.0645 4.13002 9.81287 4.23199L8.65545 4.6399L8.00126 4.74187C7.90062 4.74187 7.59868 4.6399 7.34707 4.6399L5.88772 4.33397L5.43482 4.23199C5.43482 4.23199 5.28385 4.38496 5.13288 4.58891L4.17675 5.76164C4.02579 5.96559 3.77417 6.27152 3.67353 6.47547L2.96902 7.54622C2.83837 7.72431 2.72064 7.91175 2.61676 8.10709C2.56644 8.20907 2.51611 8.66796 2.51611 8.76994L2.56644 8.87192L2.61676 9.07587C2.76773 9.27982 3.01934 9.58575 3.17031 9.73872L5.68643 12.4411C5.8374 12.5941 5.88772 12.951 5.8374 13.1549L5.43482 14.1237C5.33417 14.3277 5.33417 14.7356 5.43482 14.9395L5.53546 15.1945C5.68643 15.5514 5.88772 15.9083 6.18965 16.1632L6.59223 16.4692C6.79352 16.6221 7.09546 16.6731 7.29675 16.5711L8.70578 15.9083C8.95852 15.7856 9.19519 15.6314 9.41029 15.4494L10.5174 14.4296C10.7187 14.2767 10.7187 13.9707 10.5174 13.7668L7.95094 12.0332C7.74965 11.8802 7.69933 11.6253 7.79997 11.4213L8.80642 9.53476C8.90706 9.33081 8.95739 8.97389 8.85674 8.76994C8.7561 8.56599 8.50449 8.36204 8.3032 8.26006L5.1832 7.08733C4.98191 6.98535 4.98191 6.93437 5.23353 6.88338L7.04513 6.73041C7.29675 6.73041 7.649 6.73041 7.90062 6.83239L9.51093 7.29128C9.76255 7.34227 9.91351 7.59721 9.86319 7.85215L9.25932 11.2684C9.209 11.5233 9.209 11.7782 9.209 11.8292C9.25932 11.9312 9.46061 12.0332 9.6619 12.0842L10.618 12.2881C10.8696 12.3391 11.2219 12.3391 11.4735 12.2881L12.329 12.0842C12.5806 12.0332 12.7819 11.9312 12.7819 11.8292C12.7819 11.7273 12.7819 11.4723 12.7316 11.2684L12.1277 7.80117C12.0774 7.54622 12.2283 7.29128 12.48 7.2403L14.04 6.7814C14.2916 6.73041 14.6438 6.67943 14.8954 6.67943L16.707 6.83239C16.9587 6.83239 16.9587 6.93437 16.7574 7.03634L13.6374 8.20907C13.4361 8.31105 13.1845 8.515 13.0838 8.71895C12.9832 8.92291 13.0335 9.22884 13.1342 9.48378L14.1406 11.3703C14.2412 11.5743 14.1909 11.8802 13.9896 11.9822L11.4735 13.8178C11.2722 14.0217 11.3225 14.3277 11.4735 14.4806L12.5806 15.5004C12.8037 15.6712 13.0392 15.8246 13.2851 15.9593L14.6941 16.6221C14.8954 16.7241 15.2477 16.6731 15.3987 16.5201L15.8012 16.2142C16.1032 15.9593 16.3548 15.6533 16.4554 15.2454L16.5561 14.9905C16.6567 14.7865 16.6064 14.3786 16.5561 14.1747L16.1535 13.2059C16.0529 13.002 16.1032 12.645 16.3045 12.4921L18.8206 9.78971C18.9716 9.63674 19.2232 9.33081 19.3741 9.12686C19.4245 9.12686 19.4245 9.12686 19.4748 8.92291Z" fill="white"/>
<path opacity="0.07" d="M17.3614 21.9253L13.0337 24.9336C11.8259 25.5964 11.222 26.2593 11.1214 25.9533C11.0208 25.6984 11.1214 24.9846 11.0711 23.8118L11.0208 4.43631C11.0208 4.23236 11.1717 3.92643 11.373 3.97742L13.5872 4.64026L16.7575 4.13038L18.9214 2.60073C19.173 2.44777 19.4749 2.44777 19.6762 2.65172L21.5381 4.4873C21.6891 4.69125 21.7394 5.04817 21.6388 5.25212L21.1356 6.2209L21.991 8.51537L19.022 19.7838C18.5691 21.1095 17.9149 21.4664 17.3614 21.9253Z" fill="black"/>
</svg>
