<svg width="26" height="26" viewBox="0 0 26 26" fill="none" xmlns="http://www.w3.org/2000/svg">
<path fill-rule="evenodd" clip-rule="evenodd" d="M3.13916 4.52904C9.18247 -2.5044 20.3879 -1.11604 24.5769 7.09974C21.6281 7.10081 17.0105 7.09885 14.5096 7.09974C12.6957 7.10037 11.5246 7.05914 10.2563 7.7268C8.76527 8.51165 7.64026 9.96651 7.24755 11.6753L3.13916 4.52904Z" fill="#EA4335"/>
<path fill-rule="evenodd" clip-rule="evenodd" d="M8.67505 12.9998C8.67505 15.3835 10.6133 17.3228 12.9957 17.3228C15.378 17.3228 17.3162 15.3835 17.3162 12.9998C17.3162 10.6161 15.378 8.67676 12.9957 8.67676C10.6133 8.67676 8.67505 10.6161 8.67505 12.9998Z" fill="#4285F4"/>
<path fill-rule="evenodd" clip-rule="evenodd" d="M14.6725 18.6581C12.2474 19.3788 9.40948 18.5796 7.85497 15.8963C6.66837 13.8481 3.53322 8.38633 2.1082 5.90283C-2.88267 13.5523 1.41876 23.9765 10.4793 25.7557L14.6725 18.6581Z" fill="#34A853"/>
<path fill-rule="evenodd" clip-rule="evenodd" d="M17.0092 8.67676C19.029 10.5554 19.4691 13.5973 18.1009 15.956C17.0701 17.733 13.7803 23.2857 12.1858 25.9744C21.521 26.5499 28.3263 17.4006 25.2524 8.67676H17.0092Z" fill="#FBBC05"/>
</svg>
