<svg width="16" height="24" viewBox="0 0 16 24" fill="none" xmlns="http://www.w3.org/2000/svg">
<path d="M3.94036 23.6664C6.05075 23.6664 7.76353 21.9242 7.76353 19.7776V15.8887H3.94036C1.82997 15.8887 0.117188 17.6309 0.117188 19.7776C0.117188 21.9242 1.82997 23.6664 3.94036 23.6664Z" fill="#0ACF83"/>
<path d="M0.117188 12.0002C0.117188 9.85355 1.82997 8.11133 3.94036 8.11133H7.76353V15.8891H3.94036C1.82997 15.8891 0.117188 14.1469 0.117188 12.0002Z" fill="#A259FF"/>
<path d="M0.117188 4.2219C0.117188 2.07523 1.82997 0.333008 3.94036 0.333008H7.76353V8.11078H3.94036C1.82997 8.11078 0.117188 6.36856 0.117188 4.2219Z" fill="#F24E1E"/>
<path d="M7.76343 0.333008H11.5866C13.697 0.333008 15.4098 2.07523 15.4098 4.2219C15.4098 6.36856 13.697 8.11078 11.5866 8.11078H7.76343V0.333008Z" fill="#FF7262"/>
<path d="M15.4098 12.0002C15.4098 14.1469 13.697 15.8891 11.5866 15.8891C9.47621 15.8891 7.76343 14.1469 7.76343 12.0002C7.76343 9.85355 9.47621 8.11133 11.5866 8.11133C13.697 8.11133 15.4098 9.85355 15.4098 12.0002Z" fill="#1ABCFE"/>
</svg>
