<svg width="22" height="22" viewBox="0 0 22 22" fill="none" xmlns="http://www.w3.org/2000/svg">
<path d="M21.51 0H0V22H21.51V0Z" fill="#02C7FA"/>
<path d="M20.216 1.31738H1.28833V20.6762H20.216V1.31738Z" fill="#001D25"/>
<path d="M7.07476 12.3351V14.7414C7.07476 15.0221 6.8563 15.2456 6.58182 15.2456H5.98805C5.71358 15.2456 5.49512 15.0221 5.49512 14.7414V5.8841C5.49512 5.60337 5.71358 5.37993 5.98805 5.37993H7.05795C7.06915 5.37993 11.3263 5.17368 11.3487 8.19295C11.3487 8.21014 11.3487 8.2216 11.3487 8.23879C11.3768 8.51379 11.6232 11.6133 7.53969 11.831C7.27641 11.8482 7.07476 12.0659 7.07476 12.3351Z" fill="#03C7FB"/>
<path d="M6.98511 7.10423V10.0433C6.98511 10.1923 7.10274 10.3126 7.24278 10.3126C7.90936 10.3183 9.62904 10.0605 9.62904 8.45632C9.62904 8.45632 9.8363 6.87507 7.25958 6.83496C7.11394 6.83496 6.98511 6.95527 6.98511 7.10423Z" fill="#001D25"/>
<path d="M13.8751 15.3484C13.4102 15.3598 12.9509 15.3312 12.5027 15.165C12.1891 15.0505 11.993 14.89 12.0154 14.5176C12.0322 14.2598 12.0098 13.9963 12.021 13.7385C12.0322 13.4978 12.0714 13.3374 12.3739 13.5208C12.9061 13.8416 13.4998 13.9619 14.1216 13.9103C14.4297 13.8817 14.7322 13.8359 14.8386 13.4921C14.9562 13.1197 14.7658 12.839 14.4801 12.6499C14.032 12.3577 13.5558 12.1171 13.1021 11.8307C11.9202 11.0744 11.8474 9.81399 12.3291 8.96035C12.6652 8.36452 13.1805 7.99212 13.8359 7.89472C14.4913 7.80306 15.1579 7.81452 15.8077 7.98639C16.0261 8.04368 16.155 8.16972 16.155 8.41035C16.155 8.71399 16.1606 9.01764 16.1606 9.32129C16.1662 9.62493 16.0261 9.67077 15.7853 9.53899C15.2923 9.27545 14.7658 9.24681 14.2224 9.27545C13.9367 9.28691 13.7239 9.41868 13.6511 9.69941C13.5838 9.96295 13.6399 10.2036 13.8695 10.3926C14.3233 10.765 14.8834 10.9484 15.3651 11.2807C16.3174 11.9395 16.6703 12.7989 16.3734 13.876C16.1606 14.638 15.3427 15.3312 14.2952 15.3484C14.1552 15.3484 14.0152 15.3484 13.8751 15.3484Z" fill="#03C7FB"/>
</svg>
