<svg width="18" height="20" viewBox="0 0 18 20" fill="none" xmlns="http://www.w3.org/2000/svg">
<path d="M17.16 15.5861C16.8576 16.2848 16.4996 16.928 16.0848 17.5194C15.5194 18.3255 15.0564 18.8835 14.6996 19.1934C14.1466 19.702 13.554 19.9625 12.9194 19.9773C12.4639 19.9773 11.9145 19.8477 11.2751 19.5847C10.6335 19.323 10.0439 19.1934 9.50474 19.1934C8.93932 19.1934 8.33292 19.323 7.6843 19.5847C7.03469 19.8477 6.51138 19.9847 6.11127 19.9983C5.50277 20.0242 4.89624 19.7563 4.29083 19.1934C3.90442 18.8563 3.4211 18.2786 2.84211 17.4601C2.2209 16.586 1.71017 15.5725 1.31006 14.417C0.881556 13.1689 0.666748 11.9603 0.666748 10.7902C0.666748 9.44984 0.956368 8.29383 1.53647 7.32509C1.99238 6.54697 2.59891 5.93316 3.35802 5.48255C4.11713 5.03195 4.93735 4.80233 5.82066 4.78764C6.30398 4.78764 6.93778 4.93714 7.72541 5.23096C8.51082 5.52576 9.01512 5.67526 9.23623 5.67526C9.40153 5.67526 9.96176 5.50045 10.9115 5.15195C11.8096 4.82875 12.5676 4.69492 13.1886 4.74764C14.8712 4.88344 16.1354 5.54675 16.9761 6.74178C15.4712 7.6536 14.7268 8.93072 14.7416 10.5691C14.7552 11.8452 15.2181 12.9071 16.128 13.7503C16.5403 14.1417 17.0008 14.4441 17.5131 14.6589C17.402 14.9812 17.2847 15.2898 17.16 15.5861V15.5861ZM13.3009 0.400114C13.3009 1.40034 12.9355 2.33425 12.2071 3.19867C11.3281 4.2263 10.265 4.8201 9.11203 4.7264C9.09734 4.60641 9.08882 4.48011 9.08882 4.3474C9.08882 3.38718 9.50684 2.35956 10.2492 1.51934C10.6198 1.09392 11.0911 0.74019 11.6627 0.458013C12.233 0.180046 12.7725 0.0263242 13.2799 0C13.2947 0.133715 13.3009 0.267438 13.3009 0.400101V0.400114Z" fill="black"/>
</svg>
