<svg width="18" height="20" viewBox="0 0 18 20" fill="none" xmlns="http://www.w3.org/2000/svg">
<path fill-rule="evenodd" clip-rule="evenodd" d="M2.09545 0.600098C1.26055 0.600098 0.583862 1.27708 0.583862 2.11199V18.1549C0.583862 18.9901 1.26055 19.6668 2.09545 19.6668H15.7346C16.5692 19.6668 17.2465 18.9901 17.2465 18.1549V6.65183L11.614 0.600098L2.09545 0.600098Z" fill="#45B058"/>
<path d="M6.6246 13.4712C6.66215 13.5142 6.6836 13.5678 6.6836 13.6268C6.6836 13.7394 6.59242 13.8413 6.47413 13.8413C6.4205 13.8413 6.3615 13.8199 6.32395 13.7716C6.11478 13.5195 5.7605 13.3583 5.42796 13.3583C4.64461 13.3583 4.04927 13.9593 4.04927 14.8124C4.04927 15.6601 4.64491 16.2662 5.42796 16.2662C5.76586 16.2662 6.09839 16.1214 6.32395 15.8583C6.3612 15.8154 6.4205 15.7888 6.47413 15.7888C6.59779 15.7888 6.6836 15.8958 6.6836 16.0087C6.6836 16.0624 6.66215 16.116 6.6246 16.1589C6.34541 16.4485 5.9646 16.6634 5.42826 16.6634C4.39819 16.6634 3.58801 15.9122 3.58801 14.8124C3.58801 13.7126 4.39819 12.9614 5.42826 12.9614C5.9646 12.9617 6.35077 13.1763 6.6246 13.4712ZM8.65138 16.6637C8.1204 16.6637 7.70176 16.4867 7.39604 16.2182C7.34777 16.1753 7.32632 16.1163 7.32632 16.0573C7.32632 15.9497 7.40677 15.8318 7.53549 15.8318C7.5784 15.8318 7.62667 15.8425 7.66421 15.8747C7.91093 16.0949 8.25419 16.2662 8.66747 16.2662C9.30602 16.2662 9.50983 15.9229 9.50983 15.6491C9.50983 14.7263 7.39068 15.2361 7.39068 13.959C7.39068 13.369 7.91629 12.9665 8.6192 12.9665C9.08045 12.9665 9.47765 13.1056 9.76727 13.3473C9.81554 13.3902 9.84236 13.4492 9.84236 13.5082C9.84236 13.6155 9.75118 13.7227 9.63289 13.7227C9.58998 13.7227 9.54171 13.7066 9.50416 13.6745C9.24136 13.4599 8.91419 13.3634 8.58672 13.3634C8.15765 13.3634 7.85163 13.594 7.85163 13.9322C7.85163 14.737 9.97078 14.2755 9.97078 15.6116C9.97108 16.1324 9.61709 16.6637 8.65138 16.6637ZM13.715 13.3103L12.4758 16.3898C12.4168 16.5347 12.2717 16.6312 12.1218 16.6312H12.1111C11.9555 16.6312 11.8107 16.5347 11.7514 16.3898L10.5173 13.3103C10.5065 13.2835 10.5012 13.2567 10.5012 13.2245C10.5012 13.1173 10.5974 12.9882 10.7425 12.9882C10.8337 12.9882 10.9195 13.0419 10.9571 13.1331L12.1159 16.1104L13.2747 13.1331C13.3068 13.0472 13.3926 12.9882 13.4892 12.9882C13.6286 12.9882 13.7305 13.1009 13.7305 13.2245C13.7308 13.2513 13.7255 13.2835 13.715 13.3103Z" fill="white"/>
<path fill-rule="evenodd" clip-rule="evenodd" d="M17.2605 6.66584V6.9638H13.4465C13.4465 6.9638 11.5657 6.58836 11.6206 4.96533C11.6206 4.96533 11.6825 6.66584 13.4093 6.66584H17.2605Z" fill="#349C42"/>
<path opacity="0.5" fill-rule="evenodd" clip-rule="evenodd" d="M11.6281 0.601562V4.94027C11.6281 5.43371 11.957 6.6658 13.4468 6.6658H17.2608L11.6281 0.601562Z" fill="white"/>
</svg>
