<svg width="60" height="60" viewBox="0 0 60 60" fill="none" xmlns="http://www.w3.org/2000/svg">
<g clip-path="url(#clip0_1_16677)">
<path d="M56.7047 0.9375H3.29531C1.99313 0.9375 0.9375 1.99313 0.9375 3.29531V56.7047C0.9375 58.0069 1.99313 59.0625 3.29531 59.0625H56.7047C58.0069 59.0625 59.0625 58.0069 59.0625 56.7047V3.29531C59.0625 1.99313 58.0069 0.9375 56.7047 0.9375Z" fill="white"/>
<path d="M56.7188 0.9375H3.28125C2.65965 0.9375 2.06351 1.18443 1.62397 1.62397C1.18443 2.06351 0.9375 2.65965 0.9375 3.28125V10.3125H59.0625V3.28125C59.0625 2.65965 58.8156 2.06351 58.376 1.62397C57.9365 1.18443 57.3404 0.9375 56.7188 0.9375Z" fill="#EAEFF8"/>
<path d="M59.0625 11.25H0.9375C0.68886 11.25 0.450403 11.1512 0.274587 10.9754C0.0987721 10.7996 0 10.5611 0 10.3125C0 10.0639 0.0987721 9.8254 0.274587 9.64959C0.450403 9.47377 0.68886 9.375 0.9375 9.375H59.0625C59.3111 9.375 59.5496 9.47377 59.7254 9.64959C59.9012 9.8254 60 10.0639 60 10.3125C60 10.5611 59.9012 10.7996 59.7254 10.9754C59.5496 11.1512 59.3111 11.25 59.0625 11.25Z" fill="#D2D2D2"/>
<path d="M54.375 4.6875C54.1896 4.6875 54.0083 4.74248 53.8542 4.8455C53.7 4.94851 53.5798 5.09493 53.5089 5.26623C53.4379 5.43754 53.4193 5.62604 53.4555 5.8079C53.4917 5.98975 53.581 6.1568 53.7121 6.28791C53.8432 6.41902 54.0102 6.50831 54.1921 6.54449C54.374 6.58066 54.5625 6.56209 54.7338 6.49114C54.9051 6.42018 55.0515 6.30002 55.1545 6.14585C55.2575 5.99168 55.3125 5.81042 55.3125 5.625C55.3125 5.37636 55.2137 5.1379 55.0379 4.96209C54.8621 4.78627 54.6236 4.6875 54.375 4.6875Z" fill="#D2D2D2"/>
<path d="M50.625 4.6875C50.4396 4.6875 50.2583 4.74248 50.1042 4.8455C49.95 4.94851 49.8298 5.09493 49.7589 5.26623C49.6879 5.43754 49.6693 5.62604 49.7055 5.8079C49.7417 5.98975 49.831 6.1568 49.9621 6.28791C50.0932 6.41902 50.2602 6.50831 50.4421 6.54449C50.624 6.58066 50.8125 6.56209 50.9838 6.49114C51.1551 6.42018 51.3015 6.30002 51.4045 6.14585C51.5075 5.99168 51.5625 5.81042 51.5625 5.625C51.5625 5.37636 51.4637 5.1379 51.2879 4.96209C51.1121 4.78627 50.8736 4.6875 50.625 4.6875Z" fill="#D2D2D2"/>
<path d="M46.875 4.6875C46.6896 4.6875 46.5083 4.74248 46.3542 4.8455C46.2 4.94851 46.0798 5.09493 46.0089 5.26623C45.9379 5.43754 45.9193 5.62604 45.9555 5.8079C45.9917 5.98975 46.081 6.1568 46.2121 6.28791C46.3432 6.41902 46.5102 6.50831 46.6921 6.54449C46.874 6.58066 47.0625 6.56209 47.2338 6.49114C47.4051 6.42018 47.5515 6.30002 47.6545 6.14585C47.7575 5.99168 47.8125 5.81042 47.8125 5.625C47.8125 5.37636 47.7137 5.1379 47.5379 4.96209C47.3621 4.78627 47.1236 4.6875 46.875 4.6875Z" fill="#D2D2D2"/>
<path d="M56.7188 60H3.28125C2.41101 60 1.57641 59.6543 0.961056 59.0389C0.345702 58.4236 0 57.589 0 56.7188L0 3.28125C0 2.41101 0.345702 1.57641 0.961056 0.961056C1.57641 0.345702 2.41101 0 3.28125 0L56.7188 0C57.589 0 58.4236 0.345702 59.0389 0.961056C59.6543 1.57641 60 2.41101 60 3.28125V56.7188C60 57.589 59.6543 58.4236 59.0389 59.0389C58.4236 59.6543 57.589 60 56.7188 60ZM3.28125 1.875C2.90829 1.875 2.5506 2.02316 2.28688 2.28688C2.02316 2.5506 1.875 2.90829 1.875 3.28125V56.7188C1.875 57.0917 2.02316 57.4494 2.28688 57.7131C2.5506 57.9768 2.90829 58.125 3.28125 58.125H56.7188C57.0917 58.125 57.4494 57.9768 57.7131 57.7131C57.9768 57.4494 58.125 57.0917 58.125 56.7188V3.28125C58.125 2.90829 57.9768 2.5506 57.7131 2.28688C57.4494 2.02316 57.0917 1.875 56.7188 1.875H3.28125Z" fill="#D2D2D2"/>
</g>
<defs>
<clipPath id="clip0_1_16677">
<rect width="60" height="60" fill="white"/>
</clipPath>
</defs>
</svg>
