<svg width="25" height="25" viewBox="0 0 25 25" fill="none" xmlns="http://www.w3.org/2000/svg">
<path d="M14.9143 11.6916L6.48337 10.2063V21.1812C6.48347 21.3005 6.50705 21.4185 6.55277 21.5286C6.59849 21.6387 6.66545 21.7388 6.74983 21.823C6.83421 21.9073 6.93435 21.974 7.04454 22.0196C7.15473 22.0651 7.27281 22.0885 7.39204 22.0884H21.94C22.0594 22.0887 22.1776 22.0655 22.288 22.02C22.3983 21.9746 22.4987 21.9078 22.5832 21.8236C22.6677 21.7393 22.7348 21.6392 22.7806 21.529C22.8265 21.4188 22.8501 21.3006 22.8502 21.1812V17.1375L14.9143 11.6916Z" fill="#185C37"/>
<path d="M14.9143 2.28491H7.39204C7.27281 2.28481 7.15473 2.3082 7.04454 2.35373C6.93435 2.39927 6.83421 2.46606 6.74983 2.5503C6.66545 2.63453 6.59849 2.73456 6.55277 2.84468C6.50705 2.95479 6.48347 3.07284 6.48337 3.19207V7.23579L14.9143 12.1867L19.3785 13.6719L22.8502 12.1867V7.23579L14.9143 2.28491Z" fill="#21A366"/>
<path d="M6.48337 7.23572H14.9143V12.1866H6.48337V7.23572Z" fill="#107C41"/>
<path opacity="0.1" d="M12.5173 6.24561H6.48337V18.6228H12.5173C12.7578 18.6216 12.9881 18.5257 13.1583 18.3559C13.3285 18.1861 13.425 17.9561 13.4268 17.7156V7.15276C13.425 6.91233 13.3285 6.68229 13.1583 6.51249C12.9881 6.34269 12.7578 6.2468 12.5173 6.24561Z" fill="black"/>
<path opacity="0.2" d="M12.0215 6.74072H6.48337V19.1179H12.0215C12.2619 19.1167 12.4922 19.0208 12.6624 18.851C12.8327 18.6812 12.9291 18.4512 12.9309 18.2108V7.64788C12.9291 7.40744 12.8327 7.17741 12.6624 7.00761C12.4922 6.8378 12.2619 6.74192 12.0215 6.74072Z" fill="black"/>
<path opacity="0.2" d="M12.0215 6.74072H6.48337V18.1277H12.0215C12.2619 18.1265 12.4922 18.0307 12.6624 17.8608C12.8327 17.691 12.9291 17.461 12.9309 17.2206V7.64788C12.9291 7.40744 12.8327 7.17741 12.6624 7.00761C12.4922 6.8378 12.2619 6.74192 12.0215 6.74072Z" fill="black"/>
<path opacity="0.2" d="M11.5256 6.74072H6.48337V18.1277H11.5256C11.7661 18.1265 11.9964 18.0307 12.1666 17.8608C12.3368 17.691 12.4333 17.461 12.4351 17.2206V7.64788C12.4333 7.40744 12.3368 7.17741 12.1666 7.00761C11.9964 6.8378 11.7661 6.74192 11.5256 6.74072Z" fill="black"/>
<path d="M2.43278 6.74072H11.5256C11.7665 6.74052 11.9976 6.83596 12.1681 7.00606C12.3387 7.17616 12.4347 7.40701 12.4351 7.64788V16.7255C12.4347 16.9664 12.3387 17.1972 12.1681 17.3673C11.9976 17.5374 11.7665 17.6328 11.5256 17.6326H2.43278C2.31349 17.6328 2.19533 17.6095 2.08505 17.564C1.97477 17.5186 1.87453 17.4518 1.79008 17.3675C1.70562 17.2833 1.63859 17.1832 1.59282 17.0731C1.54705 16.9629 1.52345 16.8448 1.52335 16.7255V7.64788C1.52345 7.52858 1.54705 7.41048 1.59282 7.30031C1.63859 7.19015 1.70562 7.09008 1.79008 7.00584C1.87453 6.92159 1.97477 6.85481 2.08505 6.80932C2.19533 6.76383 2.31349 6.74052 2.43278 6.74072Z" fill="url(#paint0_linear_1_13875)"/>
<path d="M4.34154 15.1366L6.2541 12.1783L4.50225 9.23669H5.90906L6.86496 11.1203C6.95331 11.2985 7.0173 11.4311 7.04624 11.5194H7.05919C7.12164 11.3762 7.18791 11.2384 7.25722 11.1036L8.27939 9.23974H9.57423L7.77745 12.1646L9.61993 15.1389H8.24207L7.13764 13.074C7.08636 12.9852 7.04278 12.8922 7.00739 12.796H6.98911C6.95691 12.8897 6.91397 12.9795 6.86115 13.0633L5.72397 15.1366H4.34154Z" fill="white"/>
<path d="M21.9408 2.28491H14.9143V7.23579H22.8502V3.19207C22.8501 3.07277 22.8265 2.95467 22.7807 2.8445C22.735 2.73434 22.6679 2.63427 22.5835 2.55003C22.499 2.46578 22.3988 2.399 22.2885 2.35351C22.1782 2.30802 22.06 2.28471 21.9408 2.28491Z" fill="#33C481"/>
<path d="M14.9143 12.1866H22.8502V17.1375H14.9143V12.1866Z" fill="#107C41"/>
<defs>
<linearGradient id="paint0_linear_1_13875" x1="3.42296" y1="6.0278" x2="10.5355" y2="18.3456" gradientUnits="userSpaceOnUse">
<stop stop-color="#18884F"/>
<stop offset="0.5" stop-color="#117E43"/>
<stop offset="1" stop-color="#0B6631"/>
</linearGradient>
</defs>
</svg>
