<svg width="32" height="32" viewBox="0 0 32 32" fill="none" xmlns="http://www.w3.org/2000/svg">
<path fill-rule="evenodd" clip-rule="evenodd" d="M24 8.00001C24.394 7.47472 24.6806 6.87698 24.8436 6.24091C25.0065 5.60484 25.0426 4.94291 24.9497 4.2929C24.8569 3.64289 24.6369 3.01753 24.3024 2.45254C23.9678 1.88754 23.5253 1.39397 23 1.00001C22.4747 0.60604 21.877 0.319395 21.2409 0.156437C20.6048 -0.00652102 19.9429 -0.0426009 19.2929 0.0502577C18.6429 0.143116 18.0175 0.363095 17.4525 0.697633C16.8875 1.03217 16.394 1.47472 16 2.00001C15.2044 0.939139 14.0199 0.237794 12.7071 0.0502577C11.3944 -0.137279 10.0609 0.204356 9 1.00001C7.93913 1.79565 7.23779 2.98014 7.05025 4.2929C6.86272 5.60565 7.20435 6.93914 8 8.00001H2.5C1.12 8.00001 0 9.12001 0 10.5V11.5C0 12.88 1.12 14 2.5 14H14.5V8.00001H17.5V14H29.5C30.88 14 32 12.88 32 11.5V10.5C32 9.12001 30.88 8.00001 29.5 8.00001H24ZM22 5.00001C22 5.53044 21.7893 6.03915 21.4142 6.41422C21.0391 6.78929 20.5304 7.00001 20 7.00001H18V5.00001C18 4.46957 18.2107 3.96086 18.5858 3.58579C18.9609 3.21072 19.4696 3.00001 20 3.00001C20.5304 3.00001 21.0391 3.21072 21.4142 3.58579C21.7893 3.96086 22 4.46957 22 5.00001ZM10 5.00001C10 5.53044 10.2107 6.03915 10.5858 6.41422C10.9609 6.78929 11.4696 7.00001 12 7.00001H14V5.00001C14 4.46957 13.7893 3.96086 13.4142 3.58579C13.0391 3.21072 12.5304 3.00001 12 3.00001C11.4696 3.00001 10.9609 3.21072 10.5858 3.58579C10.2107 3.96086 10 4.46957 10 5.00001Z" fill="#EE3572"/>
<path d="M14.5 17H2V26.5C2 27.9587 2.57946 29.3576 3.61091 30.3891C4.64236 31.4205 6.04131 32 7.5 32H14.5V17ZM17.5 32V17H30V26.5C30 27.9587 29.4205 29.3576 28.3891 30.3891C27.3576 31.4205 25.9587 32 24.5 32H17.5Z" fill="#EE3572"/>
</svg>
