<svg width="21" height="21" viewBox="0 0 21 21" fill="none" xmlns="http://www.w3.org/2000/svg">
<path fill-rule="evenodd" clip-rule="evenodd" d="M4.76085 10.7561C4.76085 10.0964 4.87041 9.46392 5.06597 8.8707L1.64306 6.25684C0.975952 7.61132 0.600098 9.13753 0.600098 10.7561C0.600098 12.3732 0.97549 13.8985 1.64167 15.2521L5.06273 12.6331C4.86903 12.0427 4.76085 11.4125 4.76085 10.7561Z" fill="#FBBC05"/>
<path fill-rule="evenodd" clip-rule="evenodd" d="M10.7707 4.75494C12.2038 4.75494 13.4983 5.26276 14.5154 6.09373L17.4741 3.13917C15.6711 1.56956 13.3596 0.600098 10.7707 0.600098C6.75142 0.600098 3.29707 2.89865 1.64294 6.25715L5.06585 8.87101C5.85455 6.4769 8.10274 4.75494 10.7707 4.75494Z" fill="#EB4335"/>
<path fill-rule="evenodd" clip-rule="evenodd" d="M10.7707 16.7577C8.10274 16.7577 5.85455 15.0357 5.06585 12.6416L1.64294 15.255C3.29707 18.614 6.75142 20.9125 10.7707 20.9125C13.2514 20.9125 15.6198 20.0317 17.3974 18.3813L14.1483 15.8695C13.2316 16.447 12.0772 16.7577 10.7707 16.7577Z" fill="#34A853"/>
<path fill-rule="evenodd" clip-rule="evenodd" d="M20.4792 10.7563C20.4792 10.1561 20.3867 9.50981 20.248 8.90967H10.7708V12.8337H16.226C15.9532 14.1716 15.2107 15.2001 14.1484 15.8695L17.3974 18.3813C19.2647 16.6483 20.4792 14.0668 20.4792 10.7563Z" fill="#4285F4"/>
</svg>
