<svg width="17" height="17" viewBox="0 0 17 17" fill="none" xmlns="http://www.w3.org/2000/svg">
<path fill-rule="evenodd" clip-rule="evenodd" d="M1.91148 11.7156C2.343 11.7143 2.75649 11.5251 3.06151 11.1894C3.36654 10.8537 3.53827 10.3988 3.53914 9.92419V8.13403H1.91148C1.48016 8.13499 1.06672 8.3237 0.761519 8.65891C0.456319 8.99413 0.284177 9.44859 0.282715 9.92297C0.283822 10.9106 1.01239 11.7119 1.91038 11.7131L1.91148 11.7156ZM5.98839 8.13281C5.55687 8.1341 5.14338 8.32328 4.83836 8.65899C4.53333 8.99469 4.3616 9.44959 4.36073 9.92419V14.4093C4.36294 15.397 5.09151 16.197 5.98839 16.1995C6.41971 16.1982 6.83303 16.0092 7.13803 15.6737C7.44302 15.3383 7.61488 14.8837 7.61605 14.4093V9.92297C7.61488 9.44858 7.44302 8.994 7.13803 8.65856C6.83303 8.32312 6.41971 8.1341 5.98839 8.13281Z" fill="#E01E5A"/>
<path fill-rule="evenodd" clip-rule="evenodd" d="M4.36011 1.69517C4.36122 2.59316 5.08968 3.32173 5.98753 3.32284H7.61494V1.69517C7.61407 1.26385 7.44251 0.85041 7.13777 0.54521C6.83303 0.24001 6.41989 0.0678685 5.98863 0.0664062C5.55737 0.0675752 5.14411 0.239436 4.83917 0.544428C4.53422 0.849421 4.36239 1.26274 4.36122 1.69407L4.36011 1.69517ZM7.61494 5.77208C7.61377 5.34075 7.44194 4.92743 7.13699 4.62244C6.83204 4.31745 6.41878 4.14559 5.98753 4.14442H1.91013C1.47887 4.14559 1.06561 4.31745 0.760665 4.62244C0.455718 4.92743 0.283884 5.34075 0.282715 5.77208C0.284929 6.67117 1.01339 7.39863 1.91013 7.39974H5.98863C6.41989 7.39857 6.83315 7.22671 7.1381 6.92172C7.44304 6.61672 7.61377 6.2034 7.61494 5.77208Z" fill="#36C5F0"/>
<path fill-rule="evenodd" clip-rule="evenodd" d="M10.139 7.39974C10.6135 7.39857 11.0682 7.22674 11.4038 6.92179C11.7393 6.61684 11.9284 6.20358 11.9297 5.77232V1.69382C11.9284 1.26275 11.7395 0.849661 11.4042 0.544746C11.0689 0.23983 10.6145 0.0678669 10.1402 0.0664062C9.66566 0.067575 9.21093 0.23941 8.87539 0.544356C8.53985 0.849303 8.35077 1.26256 8.34949 1.69382V5.77232C8.35192 6.66906 9.15104 7.39753 10.139 7.39974ZM14.6242 4.1438C14.1497 4.14497 13.695 4.31681 13.3594 4.62175C13.0239 4.9267 12.8348 5.33996 12.8335 5.77122V7.39863H14.6242C15.0988 7.39776 15.5536 7.2262 15.8894 6.92146C16.2252 6.61672 16.4145 6.20358 16.4162 5.77232C16.4149 5.34107 16.2258 4.92781 15.8903 4.62286C15.5547 4.31791 15.1 4.14608 14.6255 4.14491L14.6242 4.1438Z" fill="#2EB67D"/>
<path fill-rule="evenodd" clip-rule="evenodd" d="M8.34949 9.92256C8.35192 10.9106 9.15214 11.7123 10.1399 11.7135H14.6257C15.1 11.7122 15.5544 11.5233 15.8899 11.188C16.2254 10.8526 16.4145 10.3982 16.4162 9.92378C16.4149 9.44918 16.2258 8.99439 15.8903 8.6588C15.5548 8.3232 15.1002 8.1341 14.6257 8.13281H10.1399C9.66546 8.1341 9.2108 8.3232 8.87531 8.6588C8.53982 8.99439 8.35077 9.44796 8.34949 9.92256ZM11.9303 14.4085C11.9291 13.9339 11.74 13.4791 11.4045 13.1435C11.069 12.8079 10.6144 12.6188 10.1399 12.6175H8.34949V14.4085C8.35192 15.3978 9.15214 16.1983 10.1399 16.1995C10.6144 16.1982 11.069 16.0091 11.4045 15.6735C11.74 15.3379 11.9291 14.8831 11.9303 14.4085Z" fill="#ECB22E"/>
</svg>
